<svg width="24" height="24" viewBox="0 0 24 24" fill="none" xmlns="http://www.w3.org/2000/svg">
<path d="M10.8001 11.9969L14.7001 8.09688C14.8834 7.91354 14.9751 7.68021 14.9751 7.39688C14.9751 7.11354 14.8834 6.88021 14.7001 6.69688C14.5168 6.51354 14.2834 6.42188 14.0001 6.42188C13.7168 6.42188 13.4834 6.51354 13.3001 6.69688L8.7001 11.2969C8.6001 11.3969 8.52926 11.5052 8.4876 11.6219C8.44593 11.7385 8.4251 11.8635 8.4251 11.9969C8.4251 12.1302 8.44593 12.2552 8.4876 12.3719C8.52926 12.4885 8.6001 12.5969 8.7001 12.6969L13.3001 17.2969C13.4834 17.4802 13.7168 17.5719 14.0001 17.5719C14.2834 17.5719 14.5168 17.4802 14.7001 17.2969C14.8834 17.1135 14.9751 16.8802 14.9751 16.5969C14.9751 16.3135 14.8834 16.0802 14.7001 15.8969L10.8001 11.9969Z" fill="#C7C7C7"/>
</svg>
