<svg width="24" height="24" viewBox="0 0 24 24" fill="none" xmlns="http://www.w3.org/2000/svg">
<path d="M10.8 12.0008L14.7 8.10078C14.8833 7.91745 14.975 7.68411 14.975 7.40078C14.975 7.11745 14.8833 6.88411 14.7 6.70078C14.5166 6.51745 14.2833 6.42578 14 6.42578C13.7166 6.42578 13.4833 6.51745 13.3 6.70078L8.69998 11.3008C8.59998 11.4008 8.52914 11.5091 8.48748 11.6258C8.44581 11.7424 8.42498 11.8674 8.42498 12.0008C8.42498 12.1341 8.44581 12.2591 8.48748 12.3758C8.52914 12.4924 8.59998 12.6008 8.69998 12.7008L13.3 17.3008C13.4833 17.4841 13.7166 17.5758 14 17.5758C14.2833 17.5758 14.5166 17.4841 14.7 17.3008C14.8833 17.1174 14.975 16.8841 14.975 16.6008C14.975 16.3174 14.8833 16.0841 14.7 15.9008L10.8 12.0008Z" fill="#C7C7C7"/>
</svg>
